<?xml version="1.0" encoding="UTF-8" standalone="no"?>
<!DOCTYPE svg PUBLIC "-//W3C//DTD SVG 1.1//EN"
 "http://www.w3.org/Graphics/SVG/1.1/DTD/svg11.dtd">
<!-- Generated by graphviz version 2.43.0 (0)
 -->
<!-- Title: mcgs::ColorSettings&lt; TValue &gt; Pages: 1 -->
<svg width="288pt" height="193pt"
 viewBox="0.00 0.00 287.50 193.00" xmlns="http://www.w3.org/2000/svg" xmlns:xlink="http://www.w3.org/1999/xlink">
<g id="graph0" class="graph" transform="scale(1 1) rotate(0) translate(4 189)">
<title>mcgs::ColorSettings&lt; TValue &gt;</title>
<polygon fill="white" stroke="transparent" points="-4,4 -4,-189 283.5,-189 283.5,4 -4,4"/>
<!-- Node1 -->
<g id="node1" class="node">
<title>Node1</title>
<g id="a_node1"><a xlink:title="Settings for the coloring algorithm.">
<polygon fill="#bfbfbf" stroke="black" points="68.5,-0.5 68.5,-68.5 182.5,-68.5 182.5,-0.5 68.5,-0.5"/>
<text text-anchor="start" x="76.5" y="-56.5" font-family="Helvetica,sans-Serif" font-size="10.00">mcgs::ColorSettings</text>
<text text-anchor="middle" x="125.5" y="-45.5" font-family="Helvetica,sans-Serif" font-size="10.00">&lt; TValue &gt;</text>
<polyline fill="none" stroke="black" points="68.5,-38.5 182.5,-38.5 "/>
<text text-anchor="middle" x="125.5" y="-26.5" font-family="Helvetica,sans-Serif" font-size="10.00"> </text>
<polyline fill="none" stroke="black" points="68.5,-19.5 182.5,-19.5 "/>
<text text-anchor="start" x="76.5" y="-7.5" font-family="Helvetica,sans-Serif" font-size="10.00">+ ColorSettings()</text>
</a>
</g>
</g>
<!-- Node2 -->
<g id="node2" class="node">
<title>Node2</title>
<g id="a_node2"><a xlink:title=" ">
<polygon fill="white" stroke="#bfbfbf" points="0,-127.5 0,-184.5 89,-184.5 89,-127.5 0,-127.5"/>
<text text-anchor="middle" x="44.5" y="-172.5" font-family="Helvetica,sans-Serif" font-size="10.00">unsigned short</text>
<polyline fill="none" stroke="#bfbfbf" points="0,-165.5 89,-165.5 "/>
<text text-anchor="middle" x="44.5" y="-153.5" font-family="Helvetica,sans-Serif" font-size="10.00"> </text>
<polyline fill="none" stroke="#bfbfbf" points="0,-146.5 89,-146.5 "/>
<text text-anchor="middle" x="44.5" y="-134.5" font-family="Helvetica,sans-Serif" font-size="10.00"> </text>
</a>
</g>
</g>
<!-- Node2&#45;&gt;Node1 -->
<g id="edge1" class="edge">
<title>Node2&#45;&gt;Node1</title>
<path fill="none" stroke="#404040" d="M48.32,-127.27C51.06,-114.27 55.7,-99.03 63.5,-87 65.63,-83.71 68.04,-80.53 70.63,-77.46"/>
<polygon fill="none" stroke="#404040" points="70.7,-77.4 71.88,-70.28 78.91,-68.64 77.72,-75.76 70.7,-77.4"/>
<text text-anchor="middle" x="92.5" y="-95.5" font-family="Helvetica,sans-Serif" font-size="10.00"> +verbosity</text>
</g>
<!-- Node3 -->
<g id="node3" class="node">
<title>Node3</title>
<g id="a_node3"><a xlink:title=" ">
<polygon fill="white" stroke="#bfbfbf" points="111,-127.5 111,-184.5 140,-184.5 140,-127.5 111,-127.5"/>
<text text-anchor="middle" x="125.5" y="-172.5" font-family="Helvetica,sans-Serif" font-size="10.00">int</text>
<polyline fill="none" stroke="#bfbfbf" points="111,-165.5 140,-165.5 "/>
<text text-anchor="middle" x="125.5" y="-153.5" font-family="Helvetica,sans-Serif" font-size="10.00"> </text>
<polyline fill="none" stroke="#bfbfbf" points="111,-146.5 140,-146.5 "/>
<text text-anchor="middle" x="125.5" y="-134.5" font-family="Helvetica,sans-Serif" font-size="10.00"> </text>
</a>
</g>
</g>
<!-- Node3&#45;&gt;Node1 -->
<g id="edge2" class="edge">
<title>Node3&#45;&gt;Node1</title>
<path fill="none" stroke="#404040" d="M125.5,-127.28C125.5,-113.47 125.5,-96.4 125.5,-80.75"/>
<polygon fill="none" stroke="#404040" points="125.5,-80.59 121.5,-74.59 125.5,-68.59 129.5,-74.59 125.5,-80.59"/>
<text text-anchor="middle" x="167.5" y="-101" font-family="Helvetica,sans-Serif" font-size="10.00"> +maxStallCount</text>
<text text-anchor="middle" x="167.5" y="-90" font-family="Helvetica,sans-Serif" font-size="10.00">+shrinkingFactor</text>
</g>
<!-- Node4 -->
<g id="node4" class="node">
<title>Node4</title>
<g id="a_node4"><a xlink:title=" ">
<polygon fill="white" stroke="#bfbfbf" points="207.5,-127.5 207.5,-184.5 257.5,-184.5 257.5,-127.5 207.5,-127.5"/>
<text text-anchor="middle" x="232.5" y="-172.5" font-family="Helvetica,sans-Serif" font-size="10.00">TValue</text>
<polyline fill="none" stroke="#bfbfbf" points="207.5,-165.5 257.5,-165.5 "/>
<text text-anchor="middle" x="232.5" y="-153.5" font-family="Helvetica,sans-Serif" font-size="10.00"> </text>
<polyline fill="none" stroke="#bfbfbf" points="207.5,-146.5 257.5,-146.5 "/>
<text text-anchor="middle" x="232.5" y="-134.5" font-family="Helvetica,sans-Serif" font-size="10.00"> </text>
</a>
</g>
</g>
<!-- Node4&#45;&gt;Node1 -->
<g id="edge3" class="edge">
<title>Node4&#45;&gt;Node1</title>
<path fill="none" stroke="#404040" d="M228.21,-127.37C225.06,-114.09 219.66,-98.58 210.5,-87 205.39,-80.55 199.24,-74.71 192.6,-69.48"/>
<polygon fill="none" stroke="#404040" points="192.33,-69.29 185.12,-69.02 182.6,-62.26 189.81,-62.53 192.33,-69.29"/>
<text text-anchor="middle" x="250.5" y="-95.5" font-family="Helvetica,sans-Serif" font-size="10.00"> +tolerance</text>
</g>
</g>
</svg>
