<?xml version="1.0" encoding="UTF-8" standalone="no"?>
<!DOCTYPE svg PUBLIC "-//W3C//DTD SVG 1.1//EN"
 "http://www.w3.org/Graphics/SVG/1.1/DTD/svg11.dtd">
<!-- Generated by graphviz version 2.43.0 (0)
 -->
<!-- Title: mcgs::CSRAdaptor&lt; TIndex, TValue &gt; Pages: 1 -->
<svg width="312pt" height="204pt"
 viewBox="0.00 0.00 312.00 204.00" xmlns="http://www.w3.org/2000/svg" xmlns:xlink="http://www.w3.org/1999/xlink">
<g id="graph0" class="graph" transform="scale(1 1) rotate(0) translate(4 200)">
<title>mcgs::CSRAdaptor&lt; TIndex, TValue &gt;</title>
<polygon fill="white" stroke="transparent" points="-4,4 -4,-200 308,-200 308,4 -4,4"/>
<!-- Node1 -->
<g id="node1" class="node">
<title>Node1</title>
<g id="a_node1"><a xlink:title="Adaptor for matrices stored in the compressed sparse row format.">
<polygon fill="#bfbfbf" stroke="black" points="79.5,-0.5 79.5,-68.5 233.5,-68.5 233.5,-0.5 79.5,-0.5"/>
<text text-anchor="start" x="87.5" y="-56.5" font-family="Helvetica,sans-Serif" font-size="10.00">mcgs::CSRAdaptor&lt; TIndex,</text>
<text text-anchor="middle" x="156.5" y="-45.5" font-family="Helvetica,sans-Serif" font-size="10.00"> TValue &gt;</text>
<polyline fill="none" stroke="black" points="79.5,-38.5 233.5,-38.5 "/>
<text text-anchor="middle" x="156.5" y="-26.5" font-family="Helvetica,sans-Serif" font-size="10.00"> </text>
<polyline fill="none" stroke="black" points="79.5,-19.5 233.5,-19.5 "/>
<text text-anchor="start" x="87.5" y="-7.5" font-family="Helvetica,sans-Serif" font-size="10.00">+ CSRAdaptor()</text>
</a>
</g>
</g>
<!-- Node2 -->
<g id="node2" class="node">
<title>Node2</title>
<g id="a_node2"><a xlink:title=" ">
<polygon fill="white" stroke="#bfbfbf" points="0,-138.5 0,-195.5 87,-195.5 87,-138.5 0,-138.5"/>
<text text-anchor="middle" x="43.5" y="-183.5" font-family="Helvetica,sans-Serif" font-size="10.00">const TIndex *</text>
<polyline fill="none" stroke="#bfbfbf" points="0,-176.5 87,-176.5 "/>
<text text-anchor="middle" x="43.5" y="-164.5" font-family="Helvetica,sans-Serif" font-size="10.00"> </text>
<polyline fill="none" stroke="#bfbfbf" points="0,-157.5 87,-157.5 "/>
<text text-anchor="middle" x="43.5" y="-145.5" font-family="Helvetica,sans-Serif" font-size="10.00"> </text>
</a>
</g>
</g>
<!-- Node2&#45;&gt;Node1 -->
<g id="edge1" class="edge">
<title>Node2&#45;&gt;Node1</title>
<path fill="none" stroke="#404040" d="M44.64,-138.39C46.56,-122.02 51.28,-101.68 62.5,-87 65.41,-83.2 68.67,-79.64 72.21,-76.32"/>
<polygon fill="none" stroke="#404040" points="72.28,-76.26 74.3,-69.34 81.46,-68.54 79.45,-75.46 72.28,-76.26"/>
<text text-anchor="middle" x="107.5" y="-106.5" font-family="Helvetica,sans-Serif" font-size="10.00"> +pColumnIndices</text>
<text text-anchor="middle" x="107.5" y="-95.5" font-family="Helvetica,sans-Serif" font-size="10.00">+pRowExtents</text>
</g>
<!-- Node3 -->
<g id="node3" class="node">
<title>Node3</title>
<g id="a_node3"><a xlink:title=" ">
<polygon fill="white" stroke="#bfbfbf" points="114,-138.5 114,-195.5 199,-195.5 199,-138.5 114,-138.5"/>
<text text-anchor="middle" x="156.5" y="-183.5" font-family="Helvetica,sans-Serif" font-size="10.00">unsigned long</text>
<polyline fill="none" stroke="#bfbfbf" points="114,-176.5 199,-176.5 "/>
<text text-anchor="middle" x="156.5" y="-164.5" font-family="Helvetica,sans-Serif" font-size="10.00"> </text>
<polyline fill="none" stroke="#bfbfbf" points="114,-157.5 199,-157.5 "/>
<text text-anchor="middle" x="156.5" y="-145.5" font-family="Helvetica,sans-Serif" font-size="10.00"> </text>
</a>
</g>
</g>
<!-- Node3&#45;&gt;Node1 -->
<g id="edge2" class="edge">
<title>Node3&#45;&gt;Node1</title>
<path fill="none" stroke="#404040" d="M156.5,-138.32C156.5,-121.63 156.5,-99.96 156.5,-80.82"/>
<polygon fill="none" stroke="#404040" points="156.5,-80.68 152.5,-74.68 156.5,-68.68 160.5,-74.68 156.5,-80.68"/>
<text text-anchor="middle" x="194.5" y="-112" font-family="Helvetica,sans-Serif" font-size="10.00"> +columnCount</text>
<text text-anchor="middle" x="194.5" y="-101" font-family="Helvetica,sans-Serif" font-size="10.00">+entryCount</text>
<text text-anchor="middle" x="194.5" y="-90" font-family="Helvetica,sans-Serif" font-size="10.00">+rowCount</text>
</g>
<!-- Node4 -->
<g id="node4" class="node">
<title>Node4</title>
<g id="a_node4"><a xlink:title=" ">
<polygon fill="white" stroke="#bfbfbf" points="217,-138.5 217,-195.5 304,-195.5 304,-138.5 217,-138.5"/>
<text text-anchor="middle" x="260.5" y="-183.5" font-family="Helvetica,sans-Serif" font-size="10.00">const TValue *</text>
<polyline fill="none" stroke="#bfbfbf" points="217,-176.5 304,-176.5 "/>
<text text-anchor="middle" x="260.5" y="-164.5" font-family="Helvetica,sans-Serif" font-size="10.00"> </text>
<polyline fill="none" stroke="#bfbfbf" points="217,-157.5 304,-157.5 "/>
<text text-anchor="middle" x="260.5" y="-145.5" font-family="Helvetica,sans-Serif" font-size="10.00"> </text>
</a>
</g>
</g>
<!-- Node4&#45;&gt;Node1 -->
<g id="edge3" class="edge">
<title>Node4&#45;&gt;Node1</title>
<path fill="none" stroke="#404040" d="M256.94,-138.23C253.74,-122.01 247.73,-101.87 236.5,-87 233.8,-83.43 230.78,-80.04 227.53,-76.83"/>
<polygon fill="none" stroke="#404040" points="227.43,-76.74 220.29,-75.73 218.47,-68.75 225.61,-69.76 227.43,-76.74"/>
<text text-anchor="middle" x="277.5" y="-101" font-family="Helvetica,sans-Serif" font-size="10.00"> +pEntries</text>
</g>
</g>
</svg>
