<?xml version="1.0" encoding="UTF-8" standalone="no"?>
<!DOCTYPE svg PUBLIC "-//W3C//DTD SVG 1.1//EN"
 "http://www.w3.org/Graphics/SVG/1.1/DTD/svg11.dtd">
<!-- Generated by graphviz version 2.43.0 (0)
 -->
<!-- Title: mcgs::SolveSettings&lt; TIndex, TValue &gt; Pages: 1 -->
<svg width="471pt" height="204pt"
 viewBox="0.00 0.00 471.00 204.00" xmlns="http://www.w3.org/2000/svg" xmlns:xlink="http://www.w3.org/1999/xlink">
<g id="graph0" class="graph" transform="scale(1 1) rotate(0) translate(4 200)">
<title>mcgs::SolveSettings&lt; TIndex, TValue &gt;</title>
<polygon fill="white" stroke="transparent" points="-4,4 -4,-200 467,-200 467,4 -4,4"/>
<!-- Node1 -->
<g id="node1" class="node">
<title>Node1</title>
<g id="a_node1"><a xlink:title="Settings for Gauss&#45;Seidel relaxation.">
<polygon fill="#bfbfbf" stroke="black" points="133,-0.5 133,-68.5 249,-68.5 249,-0.5 133,-0.5"/>
<text text-anchor="start" x="141" y="-56.5" font-family="Helvetica,sans-Serif" font-size="10.00">mcgs::SolveSettings</text>
<text text-anchor="middle" x="191" y="-45.5" font-family="Helvetica,sans-Serif" font-size="10.00">&lt; TIndex, TValue &gt;</text>
<polyline fill="none" stroke="black" points="133,-38.5 249,-38.5 "/>
<text text-anchor="middle" x="191" y="-26.5" font-family="Helvetica,sans-Serif" font-size="10.00"> </text>
<polyline fill="none" stroke="black" points="133,-19.5 249,-19.5 "/>
<text text-anchor="start" x="141" y="-7.5" font-family="Helvetica,sans-Serif" font-size="10.00">+ SolveSettings()</text>
</a>
</g>
</g>
<!-- Node2 -->
<g id="node2" class="node">
<title>Node2</title>
<g id="a_node2"><a xlink:title=" ">
<polygon fill="white" stroke="#bfbfbf" points="0,-138.5 0,-195.5 86,-195.5 86,-138.5 0,-138.5"/>
<text text-anchor="middle" x="43" y="-183.5" font-family="Helvetica,sans-Serif" font-size="10.00">Parallelization</text>
<polyline fill="none" stroke="#bfbfbf" points="0,-176.5 86,-176.5 "/>
<text text-anchor="middle" x="43" y="-164.5" font-family="Helvetica,sans-Serif" font-size="10.00"> </text>
<polyline fill="none" stroke="#bfbfbf" points="0,-157.5 86,-157.5 "/>
<text text-anchor="middle" x="43" y="-145.5" font-family="Helvetica,sans-Serif" font-size="10.00"> </text>
</a>
</g>
</g>
<!-- Node2&#45;&gt;Node1 -->
<g id="edge1" class="edge">
<title>Node2&#45;&gt;Node1</title>
<path fill="none" stroke="#404040" d="M42.66,-138.29C43.87,-121.68 48.01,-101.11 60,-87 75.63,-68.6 98.7,-56.73 121.14,-49.1"/>
<polygon fill="none" stroke="#404040" points="121.32,-49.04 125.86,-43.44 132.78,-45.47 128.24,-51.08 121.32,-49.04"/>
<text text-anchor="middle" x="101" y="-101" font-family="Helvetica,sans-Serif" font-size="10.00"> +parallelization</text>
</g>
<!-- Node3 -->
<g id="node3" class="node">
<title>Node3</title>
<g id="a_node3"><a xlink:title=" ">
<polygon fill="white" stroke="#bfbfbf" points="104.5,-138.5 104.5,-195.5 193.5,-195.5 193.5,-138.5 104.5,-138.5"/>
<text text-anchor="middle" x="149" y="-183.5" font-family="Helvetica,sans-Serif" font-size="10.00">unsigned short</text>
<polyline fill="none" stroke="#bfbfbf" points="104.5,-176.5 193.5,-176.5 "/>
<text text-anchor="middle" x="149" y="-164.5" font-family="Helvetica,sans-Serif" font-size="10.00"> </text>
<polyline fill="none" stroke="#bfbfbf" points="104.5,-157.5 193.5,-157.5 "/>
<text text-anchor="middle" x="149" y="-145.5" font-family="Helvetica,sans-Serif" font-size="10.00"> </text>
</a>
</g>
</g>
<!-- Node3&#45;&gt;Node1 -->
<g id="edge2" class="edge">
<title>Node3&#45;&gt;Node1</title>
<path fill="none" stroke="#404040" d="M146.54,-138.18C146.12,-122.69 147.18,-103.29 153,-87 153.96,-84.31 155.11,-81.64 156.41,-79.01"/>
<polygon fill="none" stroke="#404040" points="156.46,-78.93 155.96,-71.73 162.41,-68.51 162.91,-75.71 156.46,-78.93"/>
<text text-anchor="middle" x="182" y="-101" font-family="Helvetica,sans-Serif" font-size="10.00"> +verbosity</text>
</g>
<!-- Node4 -->
<g id="node4" class="node">
<title>Node4</title>
<g id="a_node4"><a xlink:title=" ">
<polygon fill="white" stroke="#bfbfbf" points="212,-138.5 212,-195.5 262,-195.5 262,-138.5 212,-138.5"/>
<text text-anchor="middle" x="237" y="-183.5" font-family="Helvetica,sans-Serif" font-size="10.00">TValue</text>
<polyline fill="none" stroke="#bfbfbf" points="212,-176.5 262,-176.5 "/>
<text text-anchor="middle" x="237" y="-164.5" font-family="Helvetica,sans-Serif" font-size="10.00"> </text>
<polyline fill="none" stroke="#bfbfbf" points="212,-157.5 262,-157.5 "/>
<text text-anchor="middle" x="237" y="-145.5" font-family="Helvetica,sans-Serif" font-size="10.00"> </text>
</a>
</g>
</g>
<!-- Node4&#45;&gt;Node1 -->
<g id="edge3" class="edge">
<title>Node4&#45;&gt;Node1</title>
<path fill="none" stroke="#404040" d="M228.33,-138.46C223.43,-123.22 217.09,-103.99 211,-87 210.17,-84.67 209.3,-82.29 208.41,-79.89"/>
<polygon fill="none" stroke="#404040" points="208.4,-79.88 202.54,-75.67 204.17,-68.65 210.03,-72.85 208.4,-79.88"/>
<text text-anchor="middle" x="290.5" y="-112" font-family="Helvetica,sans-Serif" font-size="10.00"> +relaxation</text>
<text text-anchor="middle" x="290.5" y="-101" font-family="Helvetica,sans-Serif" font-size="10.00">+residualAbsoluteTolerance</text>
<text text-anchor="middle" x="290.5" y="-90" font-family="Helvetica,sans-Serif" font-size="10.00">+residualRelativeTolerance</text>
</g>
<!-- Node5 -->
<g id="node5" class="node">
<title>Node5</title>
<g id="a_node5"><a xlink:title=" ">
<polygon fill="white" stroke="#bfbfbf" points="368,-138.5 368,-195.5 418,-195.5 418,-138.5 368,-138.5"/>
<text text-anchor="middle" x="393" y="-183.5" font-family="Helvetica,sans-Serif" font-size="10.00">TIndex</text>
<polyline fill="none" stroke="#bfbfbf" points="368,-176.5 418,-176.5 "/>
<text text-anchor="middle" x="393" y="-164.5" font-family="Helvetica,sans-Serif" font-size="10.00"> </text>
<polyline fill="none" stroke="#bfbfbf" points="368,-157.5 418,-157.5 "/>
<text text-anchor="middle" x="393" y="-145.5" font-family="Helvetica,sans-Serif" font-size="10.00"> </text>
</a>
</g>
</g>
<!-- Node5&#45;&gt;Node1 -->
<g id="edge4" class="edge">
<title>Node5&#45;&gt;Node1</title>
<path fill="none" stroke="#404040" d="M388.86,-138.4C384.94,-121.41 377.39,-100.39 363,-87 335.44,-61.36 295.61,-48.45 261.21,-41.96"/>
<polygon fill="none" stroke="#404040" points="261.13,-41.95 254.55,-44.88 249.3,-39.93 255.89,-37 261.13,-41.95"/>
<text text-anchor="middle" x="423" y="-101" font-family="Helvetica,sans-Serif" font-size="10.00"> +maxIterations</text>
</g>
</g>
</svg>
